<?xml version="1.0" encoding="utf-8"?>
<!-- Generator: Adobe Illustrator 25.0.1, SVG Export Plug-In . SVG Version: 6.00 Build 0)  -->
<svg version="1.1" id="Layer_1" xmlns="http://www.w3.org/2000/svg" xmlns:xlink="http://www.w3.org/1999/xlink" x="0px" y="0px"
	 viewBox="0 0 560 560" style="enable-background:new 0 0 560 560;" xml:space="preserve">
<style type="text/css">
	.st0{fill:#7A3F19;}
	.st1{fill:#E79B62;}
</style>
<g>
	<g>
		<path class="st0" d="M271.7,324.3c-17.8,10.1-36.3,18.6-55.4,25.4c-5.7,2-11.5,4-17.2,5.7c-5.3-4.3-10.5-8.6-15.6-13.2
			c-8.9-7.9-17.6-16.1-26-24.8c-6.2-6.4-12.2-12.9-18-19.7c15.1,0,29.3,4,41.5,11.1c8.6,4.9,16.1,11.4,22.4,18.9
			c11.4-6,24.4-9.3,38.2-9.3c10.5,0,20.6,2,29.9,5.6C271.5,324.2,271.6,324.3,271.7,324.3z"/>
		<path class="st0" d="M198.2,265.3c-14.9-15.2-28.5-31.5-40.8-48.8c-0.1,0-0.2,0-0.3,0.1c-3.9,10.2-7.3,20.7-10,31.5
			c0,0.1-0.1,0.3-0.1,0.4c-0.9,3.5-1.7,7-2.4,10.5c0,0,0,0.1,0,0.1c-2.1,9.9-3.7,20-4.7,30.2c22.3-3.2,44-9,65-17.3
			C202.6,269.7,200.3,267.5,198.2,265.3z"/>
		<path class="st0" d="M207.6,225.2c-12.2-7.1-26.4-11.1-41.5-11.1c8.3,11.4,17.1,22.4,26.6,32.9c3.7,4.2,7.6,8.3,11.5,12.3
			c3,3.1,6.1,6.1,9.2,9c8.5-3.7,16.8-7.7,24.9-12.2c12-6.6,23.6-14.1,34.8-22.4c-0.4-0.3-0.7-0.6-1.1-0.9c-8.5-2.9-17.5-4.5-27-4.5
			c-9.3,0-18.2,1.5-26.6,4.3C215.1,229.9,211.4,227.4,207.6,225.2z"/>
		<path class="st0" d="M280.1,140.4c-3.4,3.9-6.9,7.6-10.5,11.3c-11.4,11.5-23.8,21.8-36.7,30.6c5.7,6.8,11.6,13.4,17.9,19.7
			c9.4,9.5,19.2,18.3,29.4,26.3c10.2-8.1,20.1-16.8,29.4-26.3c6.2-6.3,12.2-12.9,17.9-19.7c-13-8.9-25.3-19.1-36.8-30.6
			C287,148,283.5,144.3,280.1,140.4z"/>
		<path class="st0" d="M346.8,268.4c3.1-3,6.2-6,9.2-9c13.8-14.1,26.5-29.3,38.1-45.2c-20.8-6.1-40.8-15.2-59.5-27.1
			c-6,7.2-12.3,14.3-19,21c-9.1,9.2-18.6,17.8-28.5,25.7C305.8,247.7,325.8,259.3,346.8,268.4z"/>
		<path class="st0" d="M263.5,145.7c3.8-3.8,7.5-7.8,11-11.8c-9.9-12-18.7-24.9-26.4-38.4c-16.9,12.9-32.2,27.7-45.7,44
			c7.6,12.6,15.9,24.7,25,36.2C240.2,167,252.3,157,263.5,145.7z"/>
		<path class="st0" d="M187.2,173.5c-0.5-0.2-1.1-0.5-1.6-0.7c-1.8-0.8-3.5-1.7-5.2-2.6c-0.7,1.1-1.3,2.1-2,3.2
			c-0.2,0.3-0.4,0.7-0.6,1c0,0,0,0,0,0v0c-6.2,10.3-11.7,21.1-16.6,32.3c20.7-5.8,40.6-14.7,59.1-26.3
			C208.5,180.4,197.3,177.9,187.2,173.5z"/>
		<path class="st0" d="M355.3,271.9c20.9,8.3,42.7,14.1,65,17.3c-2.5-25.4-8.4-49.7-17.3-72.7c-0.1,0-0.1,0-0.2-0.1
			c-12.3,17.3-25.9,33.6-40.8,48.8C359.8,267.5,357.6,269.7,355.3,271.9z"/>
		<path class="st0" d="M305.2,90.3c-8-5.8-16.4-11.2-25.1-16.2c-8.7,5-17,10.4-25.1,16.2c7.3,13,15.7,25.4,25.1,36.9
			C289.5,115.7,297.9,103.4,305.2,90.3z"/>
		<path class="st0" d="M399,206.7c-9.3-21.6-21.3-41.7-35.6-60.1c-7.2,11.7-15,23-23.5,33.8C358.5,192,378.3,200.8,399,206.7z"/>
		<path class="st0" d="M296.7,145.7c11.2,11.3,23.3,21.3,36.1,30c9.1-11.5,17.5-23.6,25-36.2c-13.5-16.3-28.9-31.1-45.7-44
			c-7.7,13.6-16.5,26.4-26.4,38.4C289.2,137.9,292.9,141.9,296.7,145.7z"/>
		<path class="st0" d="M289.8,411.8c25.8,11.9,52.5,21.1,80,27.4c18.2-17.9,32.5-39.6,41.4-64c-16.4-2.3-32.5-5.8-48.4-10.4
			C339.8,383.1,315.3,398.7,289.8,411.8z"/>
		<path class="st0" d="M280.1,407.2c25.4-12.5,49.8-27.7,72.9-45.3c-25.2-8.1-49.6-19-72.9-32.5c-23.2,13.5-47.6,24.4-72.9,32.5
			C230.2,379.5,254.6,394.7,280.1,407.2z"/>
		<path class="st0" d="M197.3,364.9c-15.9,4.6-32,8-48.4,10.4c8.9,24.3,23.2,46.1,41.4,64c27.5-6.4,54.3-15.6,80-27.4
			C244.8,398.7,220.4,383.1,197.3,364.9z"/>
		<path class="st0" d="M197.8,446.2c22.9,19.9,51.1,34.1,82.2,40c31.2-6,59.4-20.1,82.3-40c-28.3-7-55.8-16.9-82.2-29.5
			C253.6,429.3,226.1,439.2,197.8,446.2z"/>
		<path class="st0" d="M340,274.7c-21-9.4-41.1-21.3-59.9-35.5c-18.8,14.2-38.9,26.1-59.9,35.5c18.7,17.1,38.8,32.1,59.9,44.8
			C301.2,306.7,321.3,291.8,340,274.7z"/>
		<path class="st0" d="M421.6,309.8c-4.2,4.6-8.4,9.2-12.7,13.7c-12.1,12.4-24.7,24-37.8,34.8c14.1,3.8,28.5,6.7,43,8.8
			c5-16,7.7-33,7.7-50.6C421.7,314.2,421.6,312,421.6,309.8z"/>
		<path class="st0" d="M151.3,323.5c-4.4-4.5-8.6-9.1-12.7-13.7c-0.1,2.2-0.1,4.4-0.1,6.7c0,5.9,0.3,11.8,0.9,17.6
			c0.3,2.8,0.6,5.7,1.1,8.5c0.7,4.4,1.5,8.7,2.5,12.9c0.9,3.9,2,7.8,3.1,11.6c14.5-2,28.9-5,43-8.8
			C176.1,347.5,163.4,335.9,151.3,323.5z"/>
		<path class="st0" d="M402.7,317.5c6.2-6.4,12.2-13,18-19.7c-24.8-3.4-49-10-72.2-19.5c-18.8,17.5-38.9,32.9-60.1,46
			c23.2,13.1,47.5,23.5,72.6,31.1C375.6,343.8,389.5,331.2,402.7,317.5z"/>
	</g>
	<g>
		<path class="st1" d="M218.5,232.7c8.3-2.8,17.3-4.3,26.6-4.3c9.4,0,18.5,1.6,27,4.5c-9.5-7.7-18.7-16-27.4-24.9
			c-6.6-6.7-12.9-13.7-19-21c-18.7,11.8-38.7,20.9-59.5,27.1c15.1,0,29.3,4,41.5,11.1C211.4,227.4,215.1,229.9,218.5,232.7z"/>
		<path class="st1" d="M271.4,324.2c-9.3-3.6-19.4-5.6-29.9-5.6c-13.8,0-26.8,3.4-38.2,9.3c-6.3-7.6-13.9-14-22.4-18.9
			c-12.2-7.1-26.4-11.1-41.5-11.1c24.8-3.4,49-10,72.2-19.5C230.3,295.8,250.3,311.1,271.4,324.2z"/>
		<path class="st1" d="M315.6,208c-8.8,8.9-17.9,17.2-27.4,24.9c8.5-2.9,17.5-4.5,27-4.5c9.3,0,18.2,1.5,26.6,4.3
			c3.4-2.8,7.1-5.3,10.9-7.5c12.2-7.1,26.4-11.1,41.5-11.1c-20.8-6.1-40.8-15.2-59.5-27.1C328.5,194.3,322.2,201.3,315.6,208z"/>
		<path class="st1" d="M379.3,309c12.2-7.1,26.4-11.1,41.5-11.1c-24.8-3.4-49-10-72.2-19.5c-18.7,17.4-38.8,32.7-59.8,45.8
			c9.3-3.6,19.4-5.6,29.9-5.6c13.8,0,26.3,3.4,38.2,9.3C363.4,320.4,370.7,313.9,379.3,309z"/>
		<path class="st1" d="M206.7,139.1c10.1,0.6,13.6,3.1,23.4,7c10.3-5.8,24.8-9.8,36.1-11.6l8.4-0.6c-0.1-0.1-0.1-0.2-0.2-0.2
			c-0.1-0.1-0.1-0.1-0.2-0.2c-9.7-11.9-18.4-24.6-26-38c-16.6,12.8-31.8,27.3-45.2,43.4c-0.1,0.1-0.1,0.1-0.1,0.2
			c-0.1,0.2-0.3,0.3-0.4,0.5l4.1-0.3L206.7,139.1z"/>
		<path class="st1" d="M327.4,182.3c-13-8.9-25.3-19.1-36.7-30.6c-3.6-3.7-7.1-7.4-10.5-11.3c-3.4,3.9-6.9,7.6-10.5,11.3
			c-11.4,11.5-23.8,21.8-36.7,30.6h5.8c15.1,0,29.3,4,41.5,11.1c12.2-7,26.4-11.1,41.5-11.1H327.4z"/>
		<path class="st1" d="M238.6,274.7c15.1,0,29.3,4,41.5,11.1c12.2-7.1,26.4-11.1,41.5-11.1H340c-21-9.4-41.1-21.3-59.9-35.5
			c-18.8,14.2-38.9,26.1-59.9,35.5H238.6z"/>
		<path class="st1" d="M238.6,361.9c15.1,0,29.3,4,41.5,11.1c12.2-7.1,26.4-11.1,41.5-11.1h31.4c-25.2-8.1-49.6-19-72.9-32.5
			c-23.2,13.5-47.6,24.4-72.9,32.5H238.6z"/>
		<path class="st1" d="M197.8,446.2h46.9c12.8,0.9,24.8,4.8,35.3,10.9c10.5-6.1,22.4-9.9,35.1-10.9h47.2
			c-28.3-7-55.8-16.9-82.2-29.5C253.6,429.3,226.1,439.2,197.8,446.2z"/>
		<path class="st1" d="M280.1,99.6c7.4-4.3,15.6-7.5,24.3-9.3h0.8c-0.1-0.1-0.1-0.1-0.2-0.1c-8-5.7-16.3-11.1-24.9-16
			c-8.6,4.9-16.9,10.3-24.9,16c-0.1,0-0.1,0.1-0.2,0.1h0.7C264.4,92.1,272.6,95.3,280.1,99.6z"/>
		<path class="st1" d="M285.8,133.6c-0.1,0.1-0.1,0.1-0.2,0.2l8.4,0.6c11.2,1.8,25.8,5.8,36.1,11.6c9.8-3.9,13.3-6.4,23.4-7l0.2,0
			l4.1,0.3c-0.1-0.2-0.3-0.3-0.4-0.5c0-0.1-0.1-0.1-0.1-0.2c-13.4-16.1-28.5-30.6-45.2-43.4c-7.6,13.4-16.3,26.1-26,38
			C286,133.5,285.9,133.6,285.8,133.6z"/>
		<path class="st1" d="M339.9,180.4c11.4,0,22.2-2.3,32.1-6.5c0,0,0,0,0,0c7.2-2.9,10.9,1.7,11.8,2.7c-0.6-1.1-3.3-5.4-3.9-6.5
			c-1.2-1.9-2.4-3.8-3.6-5.6l0,0c-4-6.2-8.3-12.1-12.8-17.9C356.3,158.3,348.4,169.6,339.9,180.4z"/>
		<path class="st1" d="M355.3,271.9c16.9,0,32.5-5,45.6-13.7c0,0,0,0,0,0c0,0,0,0,0,0c0.1,0,0.1-0.1,0.2-0.1
			c10.2-7.4,14.2,0.1,14.5,0.8c-0.7-3.5-1.5-7-2.4-10.5c-2.7-10.9-6.1-21.5-10.1-31.9c-0.1,0-0.2,0-0.3-0.1
			c-12.3,17.3-25.9,33.6-40.8,48.8C359.8,267.5,357.6,269.7,355.3,271.9z"/>
		<path class="st1" d="M240.5,402.8l11.6,3.5l18.3,5.5c-25.6-13-50-28.7-73.1-46.9c-15.7,4.5-31.7,8-47.9,10.3
			c-0.2,0-0.3,0.1-0.5,0.1l7.6,2.3c4.1,1.5,8,3.4,11.7,5.6c10,5.8,18.4,13.6,25.2,22.8c9-3.3,18.9-5.1,29-5.1
			C228.6,400.8,234.7,401.5,240.5,402.8z"/>
		<path class="st1" d="M362.9,364.9c-23.1,18.2-47.5,33.9-73.1,46.9l18.3-5.5l11.6-3.5c5.8-1.3,11.9-2,18.2-2c10.1,0,20,1.8,29,5.1
			c6.8-9.3,15.2-17,25.2-22.8c3.7-2.1,7.6-4,11.7-5.6l7.6-2.3c-0.2,0-0.3-0.1-0.5-0.1C394.6,372.9,378.6,369.4,362.9,364.9z"/>
		<path class="st1" d="M159,258.1c0.1,0,0.1,0.1,0.2,0.1c0,0,0,0,0,0c0,0,0,0,0,0c13.1,8.6,28.8,13.7,45.6,13.7
			c-2.2-2.2-4.5-4.4-6.7-6.6c-14.9-15.2-28.5-31.5-40.8-48.8c-0.1,0-0.2,0-0.3,0.1c-4,10.3-7.4,21-10.1,31.9
			c-0.9,3.5-1.7,7-2.4,10.5C144.8,258.3,148.8,250.7,159,258.1z"/>
		<path class="st1" d="M188.1,173.9C188.1,173.9,188.1,173.9,188.1,173.9c9.9,4.1,20.7,6.5,32.1,6.5c-8.5-10.8-16.4-22.1-23.5-33.8
			c-4.5,5.8-8.8,11.8-12.8,17.9c-1.2,1.9-2.4,3.7-3.6,5.6c-0.7,1.1-3.3,5.4-3.9,6.5C177.3,175.6,180.9,171.1,188.1,173.9z"/>
		<path class="st1" d="M156.5,351.6L156.5,351.6c10,4.3,21.1,6.7,32.7,6.7c-13.1-10.8-25.7-22.4-37.8-34.8
			c-4.4-4.5-8.6-9.1-12.7-13.7c-0.1,2.2-0.1,4.4-0.1,6.7c0,5.9,0.3,11.8,0.9,17.6h0c0,0.3,0.1,0.6,0.1,0.8c0.1,0.7,0.2,1.5,0.3,2.2
			c0.2,1.8,0.5,3.6,0.7,5.4c0.7,4.4,1.5,8.7,2.5,12.9C143,355.5,145.1,346.1,156.5,351.6z"/>
		<path class="st1" d="M420.8,334L420.8,334c0.6-5.8,0.9-11.7,0.9-17.6c0-2.2-0.1-4.5-0.1-6.7c-4.2,4.6-8.4,9.2-12.7,13.7
			c-12.1,12.4-24.7,24-37.8,34.8c11.6,0,22.7-2.4,32.7-6.7l0,0c11.4-5.5,13.5,3.8,13.5,3.8c1-4.3,1.8-8.6,2.5-12.9
			c0.3-1.8,0.5-3.6,0.7-5.4c0.1-0.7,0.2-1.5,0.3-2.2C420.7,334.6,420.7,334.3,420.8,334z"/>
	</g>
</g>
</svg>
